<svg xmlns="http://www.w3.org/2000/svg" width="92" height="32" viewBox="0 0 92 32" fill="none"><path d="M43.4607 0.269531H36.6884H36.1351L35.7434 0.661205L34.6093 1.79524L32.9356 3.46896L32.5439 3.86064V4.41399V30.663V31.9997H33.8806H43.1863H52.4909H53.8276V30.663V25.019V23.6823H52.4909H40.8613V20.2927H52.4909H53.8276V18.956V13.3132V11.9765H52.4909H40.8613V8.58691H52.4909H53.8276V7.25021V1.60623V0.269531H52.4909H43.4607Z" fill="white"></path><path d="M14.0957 0.17749H4.14332H3.58997L3.19829 0.569164L1.11126 2.65733L0.391674 3.37692L0 3.76859V4.32195V7.15475V8.49146H1.3367H5.58819H8.50183V18.9084V30.6632V31.9999H9.83967H15.4791H16.8158V30.6632V8.49146H19.7465H24.0139H25.3506V7.15475V1.51419V0.17749H24.0139H14.0957Z" fill="white"></path><path d="M80.9347 14.9656L79.2371 13.268L76.5648 10.5957L76.3986 10.4295L76.2061 10.237L70.5064 4.53613L66.3608 0.391674L65.9691 0H65.4157H61.0458H59.708V1.3367V5.70774V6.26109L60.0997 6.65277L64.2453 10.7972L69.3587 15.9106L60.0997 25.1696L59.708 25.5613V26.1146V30.4857V31.8224H61.0458H65.4157H65.9691L66.3608 31.4307L76.5648 21.2267L80.9347 16.8568L81.8809 15.9106L80.9347 14.9656Z" fill="#00E7FF"></path><path d="M27.4106 26.3682H21.7939V31.9848H27.4106V26.3682Z" fill="white"></path><path d="M91.1383 6.65277L91.5299 6.26109V5.7066V1.3367V0H90.1932H85.8233H85.2689L84.8772 0.391674L80.7327 4.53613L75.6193 9.65067L76.2057 10.237L76.3981 10.4295L76.5644 10.5957L79.2366 13.268L80.9342 14.9656L81.8804 15.9106L80.9342 16.8568L76.5644 21.2267L75.6193 22.1717L84.8772 31.4307L85.2689 31.8224H85.8233H90.1932H91.5299V30.4857V26.1146V25.5613L91.1383 25.1696L81.8804 15.9106L86.9938 10.7972L91.1383 6.65277Z" fill="white"></path></svg>